<svg width="512" height="512" viewBox="0 0 512 512" fill="none" xmlns="http://www.w3.org/2000/svg">
	<g filter="url(#filter0_d)">
		<rect x="195" y="83" width="120" height="120" rx="4" fill="#59B8C5" />
	</g>
	<path d="M251.156 158.188C251.198 155.708 251.479 153.75 252 152.312C252.521 150.875 253.583 149.281 255.188 147.531L259.281 143.312C261.031 141.333 261.906 139.208 261.906 136.938C261.906 134.75 261.333 133.042 260.188 131.812C259.042 130.562 257.375 129.938 255.188 129.938C253.062 129.938 251.354 130.5 250.062 131.625C248.771 132.75 248.125 134.26 248.125 136.156H242.344C242.385 132.781 243.583 130.062 245.938 128C248.312 125.917 251.396 124.875 255.188 124.875C259.125 124.875 262.188 125.938 264.375 128.062C266.583 130.167 267.688 133.062 267.688 136.75C267.688 140.396 266 143.99 262.625 147.531L259.219 150.906C257.698 152.594 256.938 155.021 256.938 158.188H251.156ZM250.906 168.094C250.906 167.156 251.188 166.375 251.75 165.75C252.333 165.104 253.188 164.781 254.312 164.781C255.438 164.781 256.292 165.104 256.875 165.75C257.458 166.375 257.75 167.156 257.75 168.094C257.75 169.031 257.458 169.812 256.875 170.438C256.292 171.042 255.438 171.344 254.312 171.344C253.188 171.344 252.333 171.042 251.75 170.438C251.188 169.812 250.906 169.031 250.906 168.094Z" fill="white" />
	<g filter="url(#filter1_d)">
		<rect x="94" y="266" width="120" height="120" rx="4" fill="#59B8C5" />
	</g>
	<path d="M156.844 334.156H151.625L151.219 301.5H157.281L156.844 334.156ZM151 344.094C151 343.156 151.281 342.375 151.844 341.75C152.427 341.104 153.281 340.781 154.406 340.781C155.531 340.781 156.385 341.104 156.969 341.75C157.552 342.375 157.844 343.156 157.844 344.094C157.844 345.031 157.552 345.812 156.969 346.438C156.385 347.042 155.531 347.344 154.406 347.344C153.281 347.344 152.427 347.042 151.844 346.438C151.281 345.812 151 345.031 151 344.094Z" fill="white" />
	<g filter="url(#filter2_d)">
		<rect x="315" y="336" width="120" height="120" rx="4" fill="#59B8C5" />
	</g>
	<line x1="335.5" y1="410.5" x2="405.5" y2="410.5" stroke="white" stroke-width="5" stroke-linecap="round" />
	<line x1="338.5" y1="393.5" x2="417.5" y2="393.5" stroke="white" stroke-width="5" stroke-linecap="round" />
	<line x1="335.5" y1="376.5" x2="400.5" y2="376.5" stroke="white" stroke-width="5" stroke-linecap="round" />
	<defs>
		<filter id="filter0_d" x="195" y="69" width="134" height="134" filterUnits="userSpaceOnUse" color-interpolation-filters="sRGB">
			<feFlood flood-opacity="0" result="BackgroundImageFix" />
			<feColorMatrix in="SourceAlpha" type="matrix" values="0 0 0 0 0 0 0 0 0 0 0 0 0 0 0 0 0 0 127 0" />
			<feOffset dx="14" dy="-14" />
			<feColorMatrix type="matrix" values="0 0 0 0 0 0 0 0 0 0 0 0 0 0 0 0 0 0 0.25 0" />
			<feBlend mode="normal" in2="BackgroundImageFix" result="effect1_dropShadow" />
			<feBlend mode="normal" in="SourceGraphic" in2="effect1_dropShadow" result="shape" />
		</filter>
		<filter id="filter1_d" x="80" y="266" width="134" height="134" filterUnits="userSpaceOnUse" color-interpolation-filters="sRGB">
			<feFlood flood-opacity="0" result="BackgroundImageFix" />
			<feColorMatrix in="SourceAlpha" type="matrix" values="0 0 0 0 0 0 0 0 0 0 0 0 0 0 0 0 0 0 127 0" />
			<feOffset dx="-14" dy="14" />
			<feColorMatrix type="matrix" values="0 0 0 0 0 0 0 0 0 0 0 0 0 0 0 0 0 0 0.25 0" />
			<feBlend mode="normal" in2="BackgroundImageFix" result="effect1_dropShadow" />
			<feBlend mode="normal" in="SourceGraphic" in2="effect1_dropShadow" result="shape" />
		</filter>
		<filter id="filter2_d" x="315" y="336" width="134" height="134" filterUnits="userSpaceOnUse" color-interpolation-filters="sRGB">
			<feFlood flood-opacity="0" result="BackgroundImageFix" />
			<feColorMatrix in="SourceAlpha" type="matrix" values="0 0 0 0 0 0 0 0 0 0 0 0 0 0 0 0 0 0 127 0" />
			<feOffset dx="14" dy="14" />
			<feColorMatrix type="matrix" values="0 0 0 0 0 0 0 0 0 0 0 0 0 0 0 0 0 0 0.25 0" />
			<feBlend mode="normal" in2="BackgroundImageFix" result="effect1_dropShadow" />
			<feBlend mode="normal" in="SourceGraphic" in2="effect1_dropShadow" result="shape" />
		</filter>
	</defs>
</svg>
