<?xml version="1.0" encoding="UTF-8"?>
<svg enable-background="new 0 0 512 512" viewBox="0 0 512 512" xmlns="http://www.w3.org/2000/svg">
	<path d="m493.04 291.88c26.307-33.795 2.358-83.875-41.041-83.875h-112.79c-7.165 0-12.413-6.795-10.512-13.763 10.156-37.241 15.303-75.696 15.298-114.3l-2e-3 -15.942c-5e-3 -35.289-28.719-63.998-64.007-63.998-26.463 0-47.991 21.529-47.991 48 0 53.329-20.025 104.18-56.386 143.2l-30.574 32.803h-25.04v-16c0-8.836-7.163-16-16-16h-88c-8.837 0-16 7.164-16 16s7.163 16 16 16h72v256h-72c-8.837 0-16 7.164-16 16s7.163 16 16 16h88c8.837 0 16-7.164 16-16v-15.662c15.464 1.219 30.552 5.833 44.062 13.554 20.731 11.846 44.31 18.108 68.187 18.108h207.75c36.757 0 59.766-39.796 41.799-71.554 23.762-15.211 29.303-47.174 12.468-69.382 24.19-21.246 23.488-58.801-1.226-79.189zm-37.041 124.12h-112c-8.822 0-16-7.178-16-16s7.178-16 16-16h112c8.822 0 16 7.178 16 16s-7.178 16-16 16zm-116-64c-11.028 0-20-8.972-20-20s8.972-20 20-20h120c11.028 0 20 8.972 20 20s-8.972 20-20 20h-120zm112-112c11.028 0 20 8.972 20 20s-8.972 20-20 20h-88c-11.028 0-20-8.972-20-20s8.972-20 20-20zm-272.06 226.11c-18.339-10.479-38.908-16.579-59.938-17.849v-192.26h32c4.438 0 8.678-1.844 11.704-5.091l35.318-37.894c41.901-44.957 64.977-103.56 64.977-165.02 0-8.817 7.174-15.991 15.991-15.991 17.646 0 32.004 14.356 32.007 32.002l2e-3 15.942c5e-3 35.757-4.763 71.377-14.171 105.87-5.421 19.88 3.994 39.716 20.744 48.918-8.706 15.592-8.732 34.509-0.286 50.034-34.142 15.759-40.925 61.377-12.553 86.295-18.692 24.659-9.389 60.178 18.727 72.763-5.382 11.57-5.825 24.568-1.708 36.173h-90.503c-18.318 0-36.407-4.804-52.311-13.892zm260.06 13.892h-72c-8.822 0-16-7.178-16-16s7.178-16 16-16h72c8.822 0 16 7.178 16 16s-7.178 16-16 16z" />
</svg>
