<?xml version="1.0" encoding="UTF-8"?>
<svg width="511pt" height="511pt" viewBox="-63 1 511 512" xmlns="http://www.w3.org/2000/svg">
	<path d="m384.31 111.01c-0.09375-1.4141-0.37109-2.8047-0.83203-4.1445-0.17578-0.51172-0.30469-0.99219-0.52734-1.4883-0.78125-1.7422-1.8633-3.3281-3.1992-4.6875l-96-96c-1.3594-1.3477-2.9531-2.4336-4.707-3.1992-0.46875-0.20312-0.94922-0.37891-1.4375-0.52734-1.3633-0.46875-2.7852-0.75-4.2266-0.83203-0.25391 0.03125-0.55859-0.12891-0.87891-0.12891h-224c-26.512 0-48 21.488-48 48v416c0 26.512 21.488 48 48 48h288c26.508 0 48-21.488 48-48v-352c0-0.33594-0.17578-0.64062-0.19141-0.99219zm-54.434-15.008h-41.375v-41.375zm6.625 384h-288c-8.8359 0-16-7.1641-16-16v-416c0-8.8359 7.1641-16 16-16h208v64c0 17.672 14.328 32 32 32h64v336c0 8.8359-7.1641 16-16 16z" />
</svg>
