<?xml version="1.0" encoding="UTF-8"?>
<svg enable-background="new 0 0 512 512" version="1.1" viewBox="0 0 512 512" xml:space="preserve" xmlns="http://www.w3.org/2000/svg">
	<path d="m447.19 134.59c-0.533-1.323-1.323-2.496-2.325-3.477l-127.98-127.98c-0.981-0.981-2.176-1.771-3.477-2.325-1.301-0.534-2.688-0.811-4.075-0.811h-213.33c-17.643 0-32 14.357-32 32v448c0 17.643 14.357 32 32 32h320c17.643 0 32-14.357 32-32v-341.33c0-1.387-0.277-2.774-0.811-4.075zm-116.52-6.592c-5.867 0-10.667-4.779-10.667-10.667v-80.917l91.584 91.584h-80.917z" fill="#1a237e" />
</svg>
